<svg xmlns="http://www.w3.org/2000/svg" viewBox="0 0 136.53 117.8"><defs><style>.cls-1,.cls-4{fill:#ecf0f3;}.cls-2,.cls-3{fill:none;stroke-linejoin:round;}.cls-2,.cls-3,.cls-4,.cls-5{stroke:#1d1d1b;}.cls-2,.cls-5{stroke-linecap:round;}.cls-2,.cls-3,.cls-4{stroke-width:4px;}.cls-4,.cls-5{stroke-miterlimit:10;}.cls-5{fill:#fff;stroke-width:3px;}</style></defs><g id="Lag_2" data-name="Lag 2"><g id="Lag_1-2" data-name="Lag 1"><rect class="cls-1" x="66.21" y="2" width="44.55" height="36.39"/><polyline class="cls-2" points="66.2 28.39 66.2 38.39 76.2 38.39"/><polyline class="cls-2" points="100.75 38.39 110.75 38.39 110.75 28.39"/><polyline class="cls-2" points="110.75 12 110.75 2 100.75 2"/><polyline class="cls-2" points="76.2 2 66.2 2 66.2 12"/><rect class="cls-1" x="42.43" y="23.7" width="92.1" height="92.1"/><polygon class="cls-3" points="134.53 115.8 42.43 115.8 42.43 23.7 134.53 23.7 134.53 115.8 134.53 115.8"/><circle class="cls-4" cx="46.41" cy="88.81" r="27"/><line class="cls-5" x1="22.5" y1="88.81" x2="73.4" y2="88.81"/><rect class="cls-4" x="2" y="43.47" width="34.82" height="72.33" rx="17.41"/><line class="cls-5" x1="1.99" y1="79.63" x2="36.82" y2="79.63"/></g></g></svg>